<?xml version="1.0" encoding="UTF-8" standalone="no"?>
<svg
   xmlns:dc="http://purl.org/dc/elements/1.1/"
   xmlns:cc="http://creativecommons.org/ns#"
   xmlns:rdf="http://www.w3.org/1999/02/22-rdf-syntax-ns#"
   xmlns:svg="http://www.w3.org/2000/svg"
   xmlns="http://www.w3.org/2000/svg"
   xmlns:sodipodi="http://sodipodi.sourceforge.net/DTD/sodipodi-0.dtd"
   xmlns:inkscape="http://www.inkscape.org/namespaces/inkscape"
   version="1.1"
   id="svg2"
   xml:space="preserve"
   width="705.54669"
   height="458.18668"
   viewBox="0 0 705.54669 458.18668"
   sodipodi:docname="ufpr.eps"><metadata
     id="metadata8"><rdf:RDF><cc:Work
         rdf:about=""><dc:format>image/svg+xml</dc:format><dc:type
           rdf:resource="http://purl.org/dc/dcmitype/StillImage" /></cc:Work></rdf:RDF></metadata><defs
     id="defs6" /><sodipodi:namedview
     pagecolor="#ffffff"
     bordercolor="#666666"
     borderopacity="1"
     objecttolerance="10"
     gridtolerance="10"
     guidetolerance="10"
     inkscape:pageopacity="0"
     inkscape:pageshadow="2"
     inkscape:window-width="640"
     inkscape:window-height="480"
     id="namedview4" /><g
     id="g10"
     inkscape:groupmode="layer"
     inkscape:label="ink_ext_XXXXXX"
     transform="matrix(1.3333333,0,0,-1.3333333,0,458.18667)"><g
       id="g12"
       transform="scale(0.1)"><path
         d="M 42.2773,352.719 H 5276.66 V 276.031 H 42.2773 v 76.688"
         style="fill:#2a4373;fill-opacity:1;fill-rule:evenodd;stroke:none"
         id="path14" /><path
         d="M 42.2773,1506.09 H 5276.66 v -76.7 H 42.2773 v 76.7"
         style="fill:#2a4373;fill-opacity:1;fill-rule:evenodd;stroke:none"
         id="path16" /><path
         d="m 3344.49,2063.76 h 1932.17 v -33.53 H 3345.48 Z m -312.28,0 h 215.91 l -1.15,-33.53 H 3033.2 l -0.99,33.53 z m -317.07,0 h 220.71 l -1.16,-33.53 h -218.56 l -0.99,33.53 z m -317.06,0 h 220.7 l -1.16,-33.53 h -218.56 l -0.98,33.53 z m -319.4,0 h 223.04 l -1.16,-33.53 h -220.9 l -0.98,33.53 z m -2036.4027,0 H 1982.19 l -1.16,-33.53 H 42.2773 v 33.53 0"
         style="fill:#2a4373;fill-opacity:1;fill-rule:evenodd;stroke:none"
         id="path18" /><path
         d="m 3804.41,1910.45 h 1472.25 v -33.53 H 3804.41 v 33.53"
         style="fill:#2a4373;fill-opacity:1;fill-rule:evenodd;stroke:none"
         id="path20" /><path
         d="m 3804.41,1740.37 h 1472.25 v -33.54 H 3804.41 v 33.54"
         style="fill:#2a4373;fill-opacity:1;fill-rule:evenodd;stroke:none"
         id="path22" /><path
         d="M 42.2773,1910.45 H 1533.82 v -33.53 H 42.2773 v 33.53"
         style="fill:#2a4373;fill-opacity:1;fill-rule:evenodd;stroke:none"
         id="path24" /><path
         d="m 1504.67,1440.82 v 621.19 h 33.53 v -621.19 h -33.53"
         style="fill:#2a4373;fill-opacity:1;fill-rule:evenodd;stroke:none"
         id="path26" /><path
         d="m 3796.38,1439.63 v 618.34 h 33.53 v -618.34 h -33.53"
         style="fill:#2a4373;fill-opacity:1;fill-rule:evenodd;stroke:none"
         id="path28" /><path
         d="M 42.2773,1740.37 H 1533.82 v -33.54 H 42.2773 v 33.54"
         style="fill:#2a4373;fill-opacity:1;fill-rule:evenodd;stroke:none"
         id="path30" /><path
         d="M 42.2773,1591.93 H 5276.66 V 1558.4 H 42.2773 v 33.53"
         style="fill:#2a4373;fill-opacity:1;fill-rule:evenodd;stroke:none"
         id="path32" /><path
         d="m 1591.84,1664.41 h 22.73 v -84.33 h -22.73 v 84.33"
         style="fill:#2a4373;fill-opacity:1;fill-rule:evenodd;stroke:none"
         id="path34" /><path
         d="m 1592.14,1641.98 v 22.73 h 2149.91 v -22.73 H 1592.14"
         style="fill:#2a4373;fill-opacity:1;fill-rule:evenodd;stroke:none"
         id="path36" /><path
         d="m 3718.88,1659.62 h 22.73 v -84.33 h -22.73 v 84.33"
         style="fill:#2a4373;fill-opacity:1;fill-rule:evenodd;stroke:none"
         id="path38" /><path
         d="m 1673.21,1727.58 h 20.97 v -84.34 h -20.97 v 84.34"
         style="fill:#2a4373;fill-opacity:1;fill-rule:evenodd;stroke:none"
         id="path40" /><path
         d="m 1673.49,1705.15 v 22.73 h 1983.36 v -22.73 H 1673.49"
         style="fill:#2a4373;fill-opacity:1;fill-rule:evenodd;stroke:none"
         id="path42" /><path
         d="m 3635.49,1722.79 h 20.97 v -84.34 h -20.97 v 84.34"
         style="fill:#2a4373;fill-opacity:1;fill-rule:evenodd;stroke:none"
         id="path44" /><path
         d="m 1907.85,1810.51 h 0.28 v 0.31 h 244.39 v -92.1 h -21.6 v 68.68 h -201.48 v -63.76 h -21.59 v 86.87"
         style="fill:#2a4373;fill-opacity:1;fill-rule:evenodd;stroke:none"
         id="path46" /><path
         d="m 2227.88,1810.51 h 0.29 v 0.31 h 244.38 l 0.01,-92.1 h -21.6 v 68.68 h -201.48 v -63.76 h -21.6 v 86.87"
         style="fill:#2a4373;fill-opacity:1;fill-rule:evenodd;stroke:none"
         id="path48" /><path
         d="m 2542.86,1810.51 h 0.29 v 0.31 h 244.39 v -92.1 h -21.61 v 68.68 h -201.47 v -63.76 h -21.6 v 86.87"
         style="fill:#2a4373;fill-opacity:1;fill-rule:evenodd;stroke:none"
         id="path50" /><path
         d="m 2857.6,1810.51 h 0.29 v 0.31 h 244.38 v -92.1 h -21.59 v 68.68 h -201.47 v -63.76 h -21.61 v 86.87"
         style="fill:#2a4373;fill-opacity:1;fill-rule:evenodd;stroke:none"
         id="path52" /><path
         d="m 3172.11,1810.51 h 0.27 v 0.31 h 244.38 l 0.01,-92.1 h -21.6 v 68.68 H 3193.7 v -63.76 h -21.59 v 86.87"
         style="fill:#2a4373;fill-opacity:1;fill-rule:evenodd;stroke:none"
         id="path54" /><path
         d="m 1942.45,1856.81 h 179.85 v -37.98 h -179.85 v 37.98"
         style="fill:#2a4373;fill-opacity:1;fill-rule:evenodd;stroke:none"
         id="path56" /><path
         d="m 2258.89,1855.86 h 179.85 v -37.98 h -179.85 v 37.98"
         style="fill:#2a4373;fill-opacity:1;fill-rule:evenodd;stroke:none"
         id="path58" /><path
         d="m 2575.32,1855.86 h 179.85 v -37.98 h -179.85 v 37.98"
         style="fill:#2a4373;fill-opacity:1;fill-rule:evenodd;stroke:none"
         id="path60" /><path
         d="m 2890.8,1855.86 h 179.85 v -37.98 H 2890.8 v 37.98"
         style="fill:#2a4373;fill-opacity:1;fill-rule:evenodd;stroke:none"
         id="path62" /><path
         d="m 3207.72,1855.86 h 179.85 v -37.98 h -179.85 v 37.98"
         style="fill:#2a4373;fill-opacity:1;fill-rule:evenodd;stroke:none"
         id="path64" /><path
         d="m 1974.89,1892.42 28.61,841.88 h 54.45 l 24.25,-841.88 z m -15.33,-16.45 h 138.93 l -28.75,872.83 h -76.64 l -33.54,-872.83 v 0"
         style="fill:#2a4373;fill-opacity:1;fill-rule:evenodd;stroke:none"
         id="path66" /><path
         d="m 2295.79,1892.42 28.62,841.88 h 54.44 l 24.25,-841.88 z m -15.32,-16.45 h 138.92 l -28.74,872.83 H 2314 l -33.53,-872.83 v 0"
         style="fill:#2a4373;fill-opacity:1;fill-rule:evenodd;stroke:none"
         id="path68" /><path
         d="m 2612.86,1892.42 28.61,841.88 h 54.44 l 24.26,-841.88 z m -15.33,-16.45 h 138.92 l -28.74,872.83 h -76.64 l -33.54,-872.83 v 0"
         style="fill:#2a4373;fill-opacity:1;fill-rule:evenodd;stroke:none"
         id="path70" /><path
         d="m 2929.93,1892.42 28.61,841.88 h 54.44 l 24.25,-841.88 z m -15.33,-16.45 h 138.92 l -28.74,872.83 h -76.65 l -33.53,-872.83 v 0"
         style="fill:#2a4373;fill-opacity:1;fill-rule:evenodd;stroke:none"
         id="path72" /><path
         d="m 3242.2,1892.42 28.62,841.88 h 54.44 l 24.25,-841.88 z m -15.33,-16.45 h 138.93 l -28.74,872.83 h -76.65 l -33.54,-872.83 v 0"
         style="fill:#2a4373;fill-opacity:1;fill-rule:evenodd;stroke:none"
         id="path74" /><path
         d="m 1982.26,2788.04 h 93.53 v -25.49 h -93.53 v 25.49"
         style="fill:#2a4373;fill-opacity:1;fill-rule:evenodd;stroke:none"
         id="path76" /><path
         d="m 1956.3,2828.04 h 145.45 v -32.29 H 1956.3 v 32.29"
         style="fill:#2a4373;fill-opacity:1;fill-rule:evenodd;stroke:none"
         id="path78" /><path
         d="m 2303.17,2787.41 h 93.52 v -25.47 h -93.52 v 25.47"
         style="fill:#2a4373;fill-opacity:1;fill-rule:evenodd;stroke:none"
         id="path80" /><path
         d="m 2277.19,2827.43 h 145.46 v -32.29 h -145.46 v 32.29"
         style="fill:#2a4373;fill-opacity:1;fill-rule:evenodd;stroke:none"
         id="path82" /><path
         d="m 2620.23,2786.8 h 93.53 v -25.48 h -93.53 v 25.48"
         style="fill:#2a4373;fill-opacity:1;fill-rule:evenodd;stroke:none"
         id="path84" /><path
         d="m 2594.26,2826.8 h 145.46 v -32.28 h -145.46 v 32.28"
         style="fill:#2a4373;fill-opacity:1;fill-rule:evenodd;stroke:none"
         id="path86" /><path
         d="m 2937.3,2786.18 h 93.53 v -25.48 h -93.53 v 25.48"
         style="fill:#2a4373;fill-opacity:1;fill-rule:evenodd;stroke:none"
         id="path88" /><path
         d="m 2911.33,2826.19 h 145.46 v -32.29 h -145.46 v 32.29"
         style="fill:#2a4373;fill-opacity:1;fill-rule:evenodd;stroke:none"
         id="path90" /><path
         d="m 3249.58,2785.56 h 93.52 v -25.47 h -93.52 v 25.47"
         style="fill:#2a4373;fill-opacity:1;fill-rule:evenodd;stroke:none"
         id="path92" /><path
         d="m 3223.61,2825.57 h 145.46 v -32.28 h -145.46 v 32.28"
         style="fill:#2a4373;fill-opacity:1;fill-rule:evenodd;stroke:none"
         id="path94" /><path
         d="m 5101.87,2461.69 h 174.79 v -35.88 h -174.79 z m -233.47,0 h 171.27 v -35.88 H 4868.4 v 35.88 z m -223.91,0 h 161.7 v -35.88 h -161.7 v 35.88 z m -233.48,0 h 171.27 v -35.88 h -171.27 v 35.88 z m -228.7,0 h 166.5 v -35.88 h -166.5 v 35.88 z m -237.06,0 h 174.86 v -35.88 h -174.86 v 35.88 z m -612.15,0 h 549.94 v -35.88 h -548.91 l -1.03,35.88 z m -312.2,0 h 240.64 l -0.64,-17.81 -0.67,-18.07 h -238.29 l -1.04,35.88 z m -316.88,0 h 245.27 l -0.59,-16.39 -0.72,-19.49 h -242.93 l -1.03,35.88 z m -317.28,0 h 245.37 l -0.16,-4.16 -1.14,-31.72 h -243.04 l -1.03,35.88 z m -321.02,0 h 249.32 l -0.3,-8.23 -1,-27.65 h -246.77 l -1.25,35.88 z m -620.54,0 h 548.81 l -1.44,-35.88 h -547.37 v 35.88 z m -233.48,0 h 171.28 v -35.88 H 1211.7 v 35.88 z m -223.903,0 H 1149.5 v -35.88 H 987.797 v 35.88 z m -233.481,0 h 171.278 v -35.88 H 754.316 v 35.88 z m -228.695,0 h 166.488 v -35.88 H 525.621 v 35.88 z m -237.066,0 h 174.867 v -35.88 H 288.555 v 35.88 z m -246.2777,0 H 226.355 v -35.88 H 42.2773 v 35.88 0"
         style="fill:#2a4373;fill-opacity:1;fill-rule:evenodd;stroke:none"
         id="path96" /><path
         d="m 226.355,2764.34 v -624.43 h 62.2 v 624.43 z m -16.152,22.73 h 94.5 v -672.28 h -94.5 v 672.28 0"
         style="fill:#2a4373;fill-opacity:1;fill-rule:evenodd;stroke:none"
         id="path98" /><path
         d="m 466.355,2764.34 v -624.43 h 62.2 v 624.43 z m -16.152,22.73 h 94.5 v -672.28 h -94.5 v 672.28 0"
         style="fill:#2a4373;fill-opacity:1;fill-rule:evenodd;stroke:none"
         id="path100" /><path
         d="m 700.105,2764.34 v -624.43 h 62.2 v 624.43 z m -16.148,22.73 h 94.496 v -672.28 h -94.496 v 672.28 0"
         style="fill:#2a4373;fill-opacity:1;fill-rule:evenodd;stroke:none"
         id="path102" /><path
         d="m 932.605,2764.34 v -624.43 h 62.2 v 624.43 z m -16.148,22.73 h 94.503 v -672.28 h -94.503 v 672.28 0"
         style="fill:#2a4373;fill-opacity:1;fill-rule:evenodd;stroke:none"
         id="path104" /><path
         d="m 1148.85,2764.34 v -624.43 h 62.21 v 624.43 z m -16.14,22.73 h 94.49 v -672.28 h -94.49 v 672.28 0"
         style="fill:#2a4373;fill-opacity:1;fill-rule:evenodd;stroke:none"
         id="path106" /><path
         d="m 1387.6,2764.34 v -624.43 h 62.21 v 624.43 z m -16.14,22.73 h 94.5 v -672.28 h -94.5 v 672.28 0"
         style="fill:#2a4373;fill-opacity:1;fill-rule:evenodd;stroke:none"
         id="path108" /><path
         d="m 191.066,2822.95 h 132.778 v -30.5 H 191.066 v 30.5"
         style="fill:#2a4373;fill-opacity:1;fill-rule:evenodd;stroke:none"
         id="path110" /><path
         d="m 191.066,2102.45 h 132.778 v -30.5 H 191.066 v 30.5"
         style="fill:#2a4373;fill-opacity:1;fill-rule:evenodd;stroke:none"
         id="path112" /><path
         d="m 431.066,2822.95 h 132.778 v -30.5 H 431.066 v 30.5"
         style="fill:#2a4373;fill-opacity:1;fill-rule:evenodd;stroke:none"
         id="path114" /><path
         d="m 664.816,2822.95 h 132.778 v -30.5 H 664.816 v 30.5"
         style="fill:#2a4373;fill-opacity:1;fill-rule:evenodd;stroke:none"
         id="path116" /><path
         d="m 897.316,2822.95 h 132.774 v -30.5 H 897.316 v 30.5"
         style="fill:#2a4373;fill-opacity:1;fill-rule:evenodd;stroke:none"
         id="path118" /><path
         d="m 1113.57,2822.95 h 132.77 v -30.5 h -132.77 v 30.5"
         style="fill:#2a4373;fill-opacity:1;fill-rule:evenodd;stroke:none"
         id="path120" /><path
         d="m 1352.32,2822.95 h 132.77 v -30.5 h -132.77 v 30.5"
         style="fill:#2a4373;fill-opacity:1;fill-rule:evenodd;stroke:none"
         id="path122" /><path
         d="m 431.066,2106.7 h 132.778 v -30.51 H 431.066 v 30.51"
         style="fill:#2a4373;fill-opacity:1;fill-rule:evenodd;stroke:none"
         id="path124" /><path
         d="m 664.816,2106.7 h 132.778 v -30.51 H 664.816 v 30.51"
         style="fill:#2a4373;fill-opacity:1;fill-rule:evenodd;stroke:none"
         id="path126" /><path
         d="m 897.316,2106.7 h 132.774 v -30.51 H 897.316 v 30.51"
         style="fill:#2a4373;fill-opacity:1;fill-rule:evenodd;stroke:none"
         id="path128" /><path
         d="m 1113.57,2106.7 h 132.77 v -30.51 h -132.77 v 30.51"
         style="fill:#2a4373;fill-opacity:1;fill-rule:evenodd;stroke:none"
         id="path130" /><path
         d="m 1352.32,2106.7 h 132.77 v -30.51 h -132.77 v 30.51"
         style="fill:#2a4373;fill-opacity:1;fill-rule:evenodd;stroke:none"
         id="path132" /><path
         d="m 3881.35,2764.34 v -624.43 h 62.2 v 624.43 z m -16.15,22.73 h 94.5 v -672.28 h -94.5 v 672.28 0"
         style="fill:#2a4373;fill-opacity:1;fill-rule:evenodd;stroke:none"
         id="path134" /><path
         d="m 4121.35,2764.34 v -624.43 h 62.2 v 624.43 z m -16.15,22.73 h 94.5 v -672.28 h -94.5 v 672.28 0"
         style="fill:#2a4373;fill-opacity:1;fill-rule:evenodd;stroke:none"
         id="path136" /><path
         d="m 4355.1,2764.34 v -624.43 h 62.2 v 624.43 z m -16.15,22.73 h 94.5 v -672.28 h -94.5 v 672.28 0"
         style="fill:#2a4373;fill-opacity:1;fill-rule:evenodd;stroke:none"
         id="path138" /><path
         d="m 4587.6,2764.34 v -624.43 h 62.2 v 624.43 z m -16.15,22.73 h 94.5 v -672.28 h -94.5 v 672.28 0"
         style="fill:#2a4373;fill-opacity:1;fill-rule:evenodd;stroke:none"
         id="path140" /><path
         d="m 4803.85,2764.34 v -624.43 h 62.2 v 624.43 z m -16.15,22.73 h 94.5 v -672.28 h -94.5 v 672.28 0"
         style="fill:#2a4373;fill-opacity:1;fill-rule:evenodd;stroke:none"
         id="path142" /><path
         d="m 5042.6,2764.34 v -624.43 h 62.2 v 624.43 z m -16.15,22.73 h 94.5 v -672.28 h -94.5 v 672.28 0"
         style="fill:#2a4373;fill-opacity:1;fill-rule:evenodd;stroke:none"
         id="path144" /><path
         d="m 3846.06,2822.95 h 132.78 v -30.5 h -132.78 v 30.5"
         style="fill:#2a4373;fill-opacity:1;fill-rule:evenodd;stroke:none"
         id="path146" /><path
         d="m 3846.06,2102.45 h 132.78 v -30.5 h -132.78 v 30.5"
         style="fill:#2a4373;fill-opacity:1;fill-rule:evenodd;stroke:none"
         id="path148" /><path
         d="m 4086.06,2822.95 h 132.78 v -30.5 h -132.78 v 30.5"
         style="fill:#2a4373;fill-opacity:1;fill-rule:evenodd;stroke:none"
         id="path150" /><path
         d="m 4319.81,2822.95 h 132.78 v -30.5 h -132.78 v 30.5"
         style="fill:#2a4373;fill-opacity:1;fill-rule:evenodd;stroke:none"
         id="path152" /><path
         d="m 4552.31,2822.95 h 132.78 v -30.5 h -132.78 v 30.5"
         style="fill:#2a4373;fill-opacity:1;fill-rule:evenodd;stroke:none"
         id="path154" /><path
         d="m 4768.56,2822.95 h 132.78 v -30.5 h -132.78 v 30.5"
         style="fill:#2a4373;fill-opacity:1;fill-rule:evenodd;stroke:none"
         id="path156" /><path
         d="m 5007.31,2822.95 h 132.78 v -30.5 h -132.78 v 30.5"
         style="fill:#2a4373;fill-opacity:1;fill-rule:evenodd;stroke:none"
         id="path158" /><path
         d="m 4086.06,2106.7 h 132.78 v -30.51 h -132.78 v 30.51"
         style="fill:#2a4373;fill-opacity:1;fill-rule:evenodd;stroke:none"
         id="path160" /><path
         d="m 4319.81,2106.7 h 132.78 v -30.51 h -132.78 v 30.51"
         style="fill:#2a4373;fill-opacity:1;fill-rule:evenodd;stroke:none"
         id="path162" /><path
         d="m 4552.31,2106.7 h 132.78 v -30.51 h -132.78 v 30.51"
         style="fill:#2a4373;fill-opacity:1;fill-rule:evenodd;stroke:none"
         id="path164" /><path
         d="m 4768.56,2106.7 h 132.78 v -30.51 h -132.78 v 30.51"
         style="fill:#2a4373;fill-opacity:1;fill-rule:evenodd;stroke:none"
         id="path166" /><path
         d="m 5007.31,2106.7 h 132.78 v -30.51 h -132.78 v 30.51"
         style="fill:#2a4373;fill-opacity:1;fill-rule:evenodd;stroke:none"
         id="path168" /><path
         d="M 46.5313,2856.46 H 5279.04 v -23.13 H 46.5313 v 23.13"
         style="fill:#2a4373;fill-opacity:1;fill-rule:evenodd;stroke:none"
         id="path170" /><path
         d="m 129.367,2962.06 h 28.125 v -115 h -28.125 v 115"
         style="fill:#2a4373;fill-opacity:1;fill-rule:evenodd;stroke:none"
         id="path172" /><path
         d="m 1516.87,2968.32 h 30.63 v -122.51 h -30.63 v 122.51"
         style="fill:#2a4373;fill-opacity:1;fill-rule:evenodd;stroke:none"
         id="path174" /><path
         d="m 1533.29,2976.43 -1395.634,12.5 691.883,255 z m 92.35,-14.05 -800.636,310 L 0,2958.63 l 1625.64,3.75 v 0"
         style="fill:#2a4373;fill-opacity:1;fill-rule:evenodd;stroke:none"
         id="path176" /><path
         d="m 3794.36,2962.06 h 28.13 v -115 h -28.13 v 115"
         style="fill:#2a4373;fill-opacity:1;fill-rule:evenodd;stroke:none"
         id="path178" /><path
         d="m 5181.87,2968.32 h 30.63 v -122.51 h -30.63 v 122.51"
         style="fill:#2a4373;fill-opacity:1;fill-rule:evenodd;stroke:none"
         id="path180" /><path
         d="m 5198.29,2976.43 -1395.64,12.5 691.89,255 z m 93.29,-8.74 -801.57,304.69 -824.07,-308.44 1625.64,3.75 v 0"
         style="fill:#2a4373;fill-opacity:1;fill-rule:evenodd;stroke:none"
         id="path182" /><path
         d="m 1560.18,2982.66 h 2301.25 v -23.45 H 1560.18 v 23.45"
         style="fill:#2a4373;fill-opacity:1;fill-rule:evenodd;stroke:none"
         id="path184" /><path
         d="m 1814.22,2966.4 h 34.38 v -115 h -34.38 v 115"
         style="fill:#2a4373;fill-opacity:1;fill-rule:evenodd;stroke:none"
         id="path186" /><path
         d="m 3475.48,2966.4 h 34.37 v -115 h -34.37 v 115"
         style="fill:#2a4373;fill-opacity:1;fill-rule:evenodd;stroke:none"
         id="path188" /><path
         d="m 3575.67,3098.93 -1764.16,14.25 874.57,290.78 z m 116.73,-16.02 -1012.04,353.49 -1042.86,-357.77 2054.9,4.28 v 0"
         style="fill:#2a4373;fill-opacity:1;fill-rule:evenodd;stroke:none"
         id="path190" /><path
         d="m 1784.88,3041.39 h 1748.76 v -27.5 H 1784.88 v 27.5"
         style="fill:#2a4373;fill-opacity:1;fill-rule:evenodd;stroke:none"
         id="path192" /><path
         d="m 611.77,3180.14 -88.75,-40 H 43.6406 v 40 z m 3578.18,-40 h -735.63 l -60.32,40 h 867.53 l -67.83,-39.37 -3.75,-0.63 z m 591.25,0 -47.2,34.64 539.64,5.36 2.5,-40 H 4781.2 Z m -2922.53,0 h -745.03 l -97.49,40 h 928.46 l -85.94,-40 v 0"
         style="fill:#2a4373;fill-opacity:1;fill-rule:evenodd;stroke:none"
         id="path194" /><path
         d="m 5008.92,195.371 30.31,40.801 h 29.83 l -42.31,-40.801 z m 20.93,-10.32 98.88,-178.35959 h -28.06 l -28.22,52.58989 h -84.9 L 4959.38,6.69141 h -28.06 l 98.53,178.35959 z m 0,-45.121 -34.55,-63.1683 h 69.15 l -34.6,63.1683 z M 4725.64,6.69141 V 185.051 L 4884.61,47.9297 V 178.25 h 24.62 V 0.0117188 L 4750.26,135.602 V 6.69141 h -24.62 z M 4604.37,185.051 4505.85,6.69141 h 28.05 l 28.18,52.58989 h 84.9 l 28.21,-52.58989 h 28.07 L 4604.37,185.051 Z m 0,-45.121 -34.55,-63.1683 h 69.15 l -34.6,63.1683 z M 4398.25,161 v -57.398 h 19.71 c 20.2,0 33.73,2.039 40.57,6.16 6.84,4.078 10.23,11.238 10.23,21.488 0,10.992 -3.49,18.719 -10.54,23.16 -7.03,4.399 -20.46,6.59 -40.26,6.59 h -19.71 z M 4373.01,6.69141 V 178.25 h 51.02 c 14.59,0 25.23,-0.648 32.02,-1.918 6.78,-1.32 12.77,-3.523 17.88,-6.652 6.43,-3.95 11.45,-9.309 14.99,-15.989 3.61,-6.679 5.37,-14.082 5.37,-22.211 0,-14.031 -4.96,-24.718 -14.94,-32.0308 -9.93,-7.3203 -24.52,-10.9687 -43.72,-10.9687 h -4.61 l 83.03,-81.78909 h -32.82 l -79.29,81.78909 h -3.69 V 6.69141 h -25.24 z M 4251.74,185.051 4153.22,6.69141 h 28.06 l 28.16,52.58989 h 84.91 l 28.22,-52.58989 h 28.06 L 4251.74,185.051 Z m 0,-45.121 -34.55,-63.1683 h 69.15 l -34.6,63.1683 z m -181.2,-37.731 h 13.07 c 22.14,0 37.08,2.051 44.73,6.172 7.65,4.078 11.5,11.238 11.5,21.469 0,10.93 -3.95,18.64 -11.81,23.09 -7.85,4.441 -22.69,6.679 -44.42,6.679 h -13.07 v -57.41 z m 0,-18.5076 V 6.69141 h -25.23 V 178.25 h 45.55 c 15.95,0 27.65,-0.68 35.2,-2 7.5,-1.32 14.03,-3.531 19.55,-6.57 6.95,-3.871 12.37,-9.231 16.26,-16.032 3.91,-6.808 5.88,-14.367 5.88,-22.648 0,-8.281 -1.97,-15.801 -5.88,-22.59 -3.89,-6.801 -9.31,-12.16 -16.26,-16.0506 -5.52,-3.1094 -12,-5.3477 -19.5,-6.668 -7.44,-1.332 -19.2,-2 -35.25,-2 h -7.25 -13.07 z m -157.09,8.4375 c 0,-12.2891 -2.89,-23.8398 -8.61,-34.6797 -5.72,-10.8789 -14.14,-20.5273 -25.08,-28.9687 -10.99,-8.4297 -23.66,-14.9219 -37.94,-19.51956 -14.33,-4.5625 -29.18,-6.83203 -44.48,-6.83203 -15.34,0 -30.14,2.26953 -44.37,6.83203 -14.18,4.59766 -26.8,11.08986 -37.8,19.51956 -11.09,8.5312 -19.5,18.2109 -25.27,29.0898 -5.83,10.8399 -8.71,22.3594 -8.71,34.5586 0,12.2811 2.88,23.8321 8.71,34.7501 5.77,10.883 14.18,20.613 25.27,29.121 10.9,8.359 23.51,14.809 37.75,19.332 14.23,4.508 29.08,6.797 44.42,6.797 15.4,0 30.29,-2.289 44.58,-6.797 14.34,-4.523 26.95,-10.973 37.84,-19.332 10.94,-8.43 19.36,-18.109 25.08,-28.988 5.72,-10.93 8.61,-22.524 8.61,-34.8831 z M 3797.34,21.332 c 11.86,0 23.15,1.75 33.95,5.3164 10.73,3.5508 20.41,8.7618 29.02,15.5508 8.51,6.6797 14.99,14.3321 19.45,22.8516 4.47,8.5078 6.69,17.5195 6.69,27.0781 0,9.6011 -2.22,18.7231 -6.74,27.4021 -4.51,8.68 -10.99,16.321 -19.4,22.961 -8.51,6.719 -18.14,11.828 -28.88,15.36 -10.78,3.507 -22.13,5.269 -34.09,5.269 -12.1,0 -23.55,-1.762 -34.35,-5.269 -10.79,-3.532 -20.36,-8.641 -28.67,-15.36 -8.5,-6.801 -14.99,-14.492 -19.45,-23.094 -4.45,-8.589 -6.68,-17.668 -6.68,-27.2691 0,-9.5586 2.23,-18.5195 6.63,-26.9687 4.41,-8.4297 10.89,-16.1094 19.5,-22.961 8.72,-6.8672 18.39,-12.0781 29.04,-15.5898 10.68,-3.5274 21.98,-5.2774 33.98,-5.2774 z M 3470.75,6.69141 V 178.25 h 41.75 c 30.85,0 52.57,-1.238 65.19,-3.68 12.62,-2.48 23.7,-6.601 33.19,-12.371 12.46,-7.59 21.93,-17.269 28.36,-29.078 6.43,-11.789 9.62,-25.402 9.62,-40.7616 0,-15.3086 -3.19,-28.8789 -9.57,-40.6289 -6.38,-11.7188 -15.86,-21.3985 -28.41,-29 -9.49,-5.7617 -20.33,-9.8789 -32.43,-12.3594 -12.11,-2.44141 -31,-3.67969 -56.64,-3.67969 h -9.31 -41.75 z m 26.14,19.19919 h 16.47 c 26.74,0 45.23,0.9102 55.51,2.7578 10.29,1.8399 18.85,4.961 25.69,9.4336 8.91,5.8399 15.65,13.4102 20.32,22.6875 4.66,9.2422 6.98,19.8321 6.98,31.8008 0,12.0387 -2.27,22.5897 -6.88,31.7107 -4.61,9.09 -11.4,16.61 -20.42,22.559 -6.84,4.519 -15.5,7.73 -26.04,9.64 -10.54,1.93 -28.92,2.879 -55.16,2.879 h -16.47 V 25.8906 Z M 3242.49,6.69141 V 178.25 h 25.84 V 26.1211 h 82.06 V 6.69141 h -107.9 z M 3121.22,185.051 3022.68,6.69141 h 28.07 l 28.16,52.58989 h 84.91 l 28.22,-52.58989 h 28.05 L 3121.22,185.051 Z m 0,-45.121 -34.55,-63.1683 h 69.15 l -34.6,63.1683 z M 2915.09,161 v -57.398 h 19.7 c 20.22,0 33.74,2.039 40.58,6.16 6.84,4.078 10.23,11.238 10.23,21.488 0,10.992 -3.49,18.719 -10.53,23.16 -7.05,4.399 -20.47,6.59 -40.28,6.59 h -19.7 z M 2889.86,6.69141 V 178.25 h 51.02 c 14.59,0 25.22,-0.648 32.01,-1.918 6.78,-1.32 12.77,-3.523 17.88,-6.652 6.43,-3.95 11.45,-9.309 15,-15.989 3.59,-6.679 5.36,-14.082 5.36,-22.211 0,-14.031 -4.96,-24.718 -14.94,-32.0308 -9.92,-7.3203 -24.51,-10.9687 -43.71,-10.9687 h -4.61 L 3030.9,6.69141 h -32.84 l -79.27,81.78909 h -3.7 V 6.69141 h -25.23 z m -158.36,0 V 178.25 h 114.59 v -18.641 h -88.75 V 110.41 h 88.75 V 91.3984 h -88.75 v -65.707 h 88.75 V 6.69141 H 2731.5 Z m -220.41,0 V 178.25 h 41.74 c 30.86,0 52.58,-1.238 65.2,-3.68 12.62,-2.48 23.7,-6.601 33.18,-12.371 12.46,-7.59 21.93,-17.269 28.37,-29.078 6.43,-11.789 9.63,-25.402 9.63,-40.7616 0,-15.3086 -3.2,-28.8789 -9.58,-40.6289 -6.38,-11.7188 -15.86,-21.3985 -28.42,-29 -9.48,-5.7617 -20.31,-9.8789 -32.42,-12.3594 -12.11,-2.44141 -31,-3.67969 -56.64,-3.67969 h -9.32 -41.74 z m 26.14,19.19919 h 16.46 c 26.75,0 45.24,0.9102 55.53,2.7578 10.28,1.8399 18.84,4.961 25.68,9.4336 8.92,5.8399 15.65,13.4102 20.31,22.6875 4.66,9.2422 6.99,19.8321 6.99,31.8008 0,12.0387 -2.27,22.5897 -6.88,31.7107 -4.62,9.09 -11.4,16.61 -20.42,22.559 -6.84,4.519 -15.5,7.73 -26.04,9.64 -10.54,1.93 -28.93,2.879 -55.17,2.879 h -16.46 V 25.8906 Z M 2352.73,6.69141 V 178.25 h 114.59 v -18.641 h -88.75 V 110.41 h 88.75 V 91.3984 h -88.75 v -65.707 h 88.75 V 6.69141 h -114.59 z m -154.05,0 V 178.25 h 114.59 v -18.641 h -88.75 V 110.41 h 88.75 V 91.3984 h -88.75 V 6.69141 h -25.84 z m -248.02,0 V 178.25 h 114.59 V 159.609 H 1976.5 V 110.41 h 88.75 V 91.3984 h -88.75 v -65.707 h 88.75 V 6.69141 h -114.59 z m -220.41,0 V 178.25 h 41.74 c 30.85,0 52.58,-1.238 65.2,-3.68 12.61,-2.48 23.71,-6.601 33.18,-12.371 12.46,-7.59 21.94,-17.269 28.37,-29.078 6.43,-11.789 9.62,-25.402 9.62,-40.7616 0,-15.3086 -3.19,-28.8789 -9.57,-40.6289 -6.39,-11.7188 -15.86,-21.3985 -28.42,-29 -9.47,-5.7617 -20.31,-9.8789 -32.42,-12.3594 -12.11,-2.44141 -31,-3.67969 -56.64,-3.67969 h -9.32 -41.74 z m 26.14,19.19919 h 16.46 c 26.75,0 45.24,0.9102 55.53,2.7578 10.27,1.8399 18.84,4.961 25.68,9.4336 8.92,5.8399 15.65,13.4102 20.31,22.6875 4.66,9.2422 6.99,19.8321 6.99,31.8008 0,12.0387 -2.28,22.5897 -6.89,31.7107 -4.61,9.09 -11.4,16.61 -20.41,22.559 -6.84,4.519 -15.5,7.73 -26.04,9.64 -10.54,1.93 -28.93,2.879 -55.17,2.879 h -16.46 V 25.8906 Z M 1608.97,185.051 1707.86,6.69141 h -28.06 l -28.22,52.58989 h -84.9 L 1538.51,6.69141 h -28.06 l 98.52,178.35959 z m 0,-45.121 -34.54,-63.1683 h 69.14 l -34.6,63.1683 z M 1325.19,6.69141 V 178.25 h 41.75 c 30.84,0 52.57,-1.238 65.19,-3.68 12.61,-2.48 23.71,-6.601 33.18,-12.371 12.46,-7.59 21.93,-17.269 28.37,-29.078 6.43,-11.789 9.62,-25.402 9.62,-40.7616 0,-15.3086 -3.19,-28.8789 -9.57,-40.6289 -6.38,-11.7188 -15.86,-21.3985 -28.42,-29 -9.47,-5.7617 -20.31,-9.8789 -32.42,-12.3594 -12.11,-2.44141 -31,-3.67969 -56.64,-3.67969 h -9.31 -41.75 z m 26.14,19.19919 h 16.46 c 26.75,0 45.24,0.9102 55.53,2.7578 10.28,1.8399 18.84,4.961 25.68,9.4336 8.92,5.8399 15.65,13.4102 20.31,22.6875 4.66,9.2422 7,19.8321 7,31.8008 0,12.0387 -2.29,22.5897 -6.9,31.7107 -4.61,9.09 -11.39,16.61 -20.41,22.559 -6.84,4.519 -15.5,7.73 -26.04,9.64 -10.54,1.93 -28.93,2.879 -55.17,2.879 h -16.46 V 25.8906 Z M 1246.77,6.69141 V 178.25 h 25.84 V 6.69141 h -25.84 z m -77.45,95.27759 c 14.13,-4.7698 24.82,-11.0784 32.01,-18.969 7.14,-7.918 10.74,-17.2305 10.74,-27.9883 0,-15.8008 -6.33,-28.5312 -19.05,-38.1719 -12.71,-9.64058 -29.58,-14.48042 -50.55,-14.48042 -17.13,0 -31.46,3.44921 -43.06,10.35942 -11.55,6.9296 -19.35,16.7617 -23.41,29.4804 l 23.41,9.1602 c 3.19,-10.3985 8.41,-18.2774 15.65,-23.5899 7.3,-5.3593 16.42,-8.0507 27.41,-8.0507 12.97,0 23.45,2.9609 31.46,8.8398 8,5.9297 12,13.5703 12,23.0508 0,7.6406 -2.78,14.3125 -8.36,19.9609 -5.62,5.6719 -14.03,10.4414 -25.33,14.3516 l -26.39,8.9297 c -14.44,4.7578 -25.22,10.8784 -32.26,18.3984 -7.1,7.48 -10.65,16.469 -10.65,26.91 0,12.211 5.73,22.289 17.23,30.25 11.44,7.961 26.09,11.949 43.92,11.949 13.06,0 24.36,-2.199 33.89,-6.55 9.57,-4.368 17.02,-10.84 22.34,-19.368 l -21.38,-10.761 c -4.81,6.652 -10.29,11.562 -16.31,14.808 -6.03,3.242 -12.87,4.883 -20.47,4.883 -9.67,0 -17.63,-2.371 -23.8,-7.039 -6.19,-4.684 -9.28,-10.652 -9.28,-17.922 0,-6.09 2.39,-11.359 7.15,-15.801 4.71,-4.488 12.1,-8.398 22.08,-11.839 l 31.01,-10.801 z M 952.809,161 v -57.398 h 19.703 c 20.211,0 33.738,2.039 40.578,6.16 6.83,4.078 10.23,11.238 10.23,21.488 0,10.992 -3.49,18.719 -10.54,23.16 -7.04,4.399 -20.464,6.59 -40.268,6.59 H 952.809 Z M 927.574,6.69141 V 178.25 h 51.012 c 14.594,0 25.234,-0.648 32.024,-1.918 6.78,-1.32 12.76,-3.523 17.88,-6.652 6.43,-3.95 11.44,-9.309 14.99,-15.989 3.6,-6.679 5.37,-14.082 5.37,-22.211 0,-14.031 -4.96,-24.718 -14.94,-32.0308 -9.93,-7.3203 -24.52,-10.9687 -43.719,-10.9687 h -4.609 L 1068.61,6.69141 h -32.83 L 956.5,88.4805 h -3.691 V 6.69141 h -25.235 z m -158.355,0 V 178.25 h 114.59 V 159.609 H 795.055 V 110.41 h 88.754 V 91.3984 h -88.754 v -65.707 h 88.754 V 6.69141 H 769.219 Z M 654.934,0.0117188 563.094,178.25 h 28.011 L 654.934,47.0117 718.461,178.25 h 27.914 L 654.934,0.0117188 Z M 514.512,6.69141 V 178.25 h 25.836 V 6.69141 h -25.836 z m -235.758,0 V 185.051 L 437.715,47.9297 V 178.25 h 24.621 V 0.0117188 L 303.371,135.602 V 6.69141 H 278.754 Z M 58.9453,178.25 H 85.0898 V 71.5195 c 0,-17.3476 4.6563,-30.0781 14.0313,-38.1875 9.3239,-8.1328 24.0119,-12.2109 43.9729,-12.2109 19.961,0 34.648,4.0781 43.969,12.2109 9.371,8.1094 14.031,20.8399 14.031,38.1875 V 178.25 h 26.289 V 71.5195 c 0,-23.2304 -6.985,-40.5976 -21.02,-52.1211 C 192.379,7.89063 171.305,2.12891 143.094,2.12891 114.977,2.12891 93.9531,7.89063 79.9727,19.3984 65.9375,30.9219 58.9453,48.2891 58.9453,71.5195 v 106.7305 0"
         style="fill:#231f20;fill-opacity:1;fill-rule:evenodd;stroke:none"
         id="path196" /><path
         d="M 57.7891,1299.5 H 293.281 l 1.25,-474.801 C 294.742,744.23 314.93,685.32 380.93,647.59 c 65.738,-37.551 154.242,-56.559 294.922,-56.559 140.671,0 200.429,15.258 266.168,52.809 66,37.73 112.65,89.129 112.65,169.609 V 1302 l 232.82,-5 V 802.199 c 0,-107.73 -56.82,-196.91 -155.68,-250.39 -98.59,-53.329 -258.326,-68.86 -457.208,-68.86 -198.164,0 -356.301,20.531 -454.883,73.86 -98.86,53.48 -161.9299,140.152 -161.9299,247.89 V 1299.5"
         style="fill:#231f20;fill-opacity:1;fill-rule:evenodd;stroke:none"
         id="path198" /><path
         d="m 1508.75,1303.58 c 339.9,0 679.57,-0.63 1020.02,-0.63 v -104.38 h -781.26 v -207.5 h 783.76 V 878.57 H 1747.51 V 502.332 h -238.76 v 801.248"
         style="fill:#231f20;fill-opacity:1;fill-rule:evenodd;stroke:none"
         id="path200" /><path
         d="m 2723.29,500.461 v 806.079 h 433.01 c 229.92,0 399.93,-21.8 512.08,-57.67 245.42,-78.49 258.14,-346.628 9.6,-435.999 -108.88,-39.152 -263.73,-44.019 -458.49,-44.019 -24.42,0 -43.46,0.007 -56.14,0.199 -13.19,0.187 -37.88,0.57 -49.12,0.941 l -0.2,-269.531 z m 388.86,425.219 c 4.87,0 59.08,-0.2 68.83,-0.571 10.25,-0.367 17.58,-0.558 22.46,-0.558 88.35,0 155.7,9.89 202.1,29.597 46.33,19.672 69.32,47.872 69.32,84.802 0,38.26 -21.98,57.79 -65.91,76.07 -43.44,18.07 -112.27,27.33 -205.51,27.33 -4.88,0 -12.21,-0.19 -22.46,-0.58 -9.75,-0.35 -63.96,-0.55 -68.83,-0.55 v -215.54 0"
         style="fill:#231f20;fill-opacity:1;fill-rule:evenodd;stroke:none"
         id="path202" /><path
         d="m 4083.93,500.461 v 804.999 h 435.15 c 194.02,0 674.14,25.03 674.14,-266.62 0,-57.399 -27.42,-103.559 -82.32,-138.149 -55.35,-34.851 -138.21,-59.101 -249.44,-73.031 l 409.83,-327.199 -459.47,-4.941 -356.22,321.582 -1.9,-316.653 z m 368.52,422.109 c 4.9,0 42.74,-0.211 53.51,-0.57 11.27,-0.371 19.12,-0.57 24.02,-0.57 90.65,0 159.26,9.808 204.83,29.179 46.07,19.571 69.1,48.192 69.1,86.201 0,38.59 -21.08,66.63 -63.22,84.32 -42.13,17.69 -109.28,26.54 -202.38,26.54 -14.21,0 -25.48,-0.2 -32.83,-0.38 -7.84,-0.18 -44.7,-0.37 -51.57,-0.75 l -1.46,-223.97 v 0"
         style="fill:#231f20;fill-opacity:1;fill-rule:evenodd;stroke:none"
         id="path204" /></g></g></svg>
